<?xml version="1.0" encoding="UTF-8" standalone="no"?>
<!-- Created for SWAN: swan.web.cern.ch -->
<!-- Copyright CERN -->

<svg
   xmlns:dc="http://purl.org/dc/elements/1.1/"
   xmlns:cc="http://creativecommons.org/ns#"
   xmlns:rdf="http://www.w3.org/1999/02/22-rdf-syntax-ns#"
   xmlns:svg="http://www.w3.org/2000/svg"
   xmlns="http://www.w3.org/2000/svg"
   xmlns:xlink="http://www.w3.org/1999/xlink"
   xmlns:sodipodi="http://sodipodi.sourceforge.net/DTD/sodipodi-0.dtd"
   xmlns:inkscape="http://www.inkscape.org/namespaces/inkscape"
   version="1.1"
   width="522.76837"
   height="452.84839"
   id="svg4206"
   inkscape:version="0.48.4 r9939"
   sodipodi:docname="logo_swan_noletters_bw.svg">
  <sodipodi:namedview
     pagecolor="#ffffff"
     bordercolor="#666666"
     borderopacity="1"
     objecttolerance="10"
     gridtolerance="10"
     guidetolerance="10"
     inkscape:pageopacity="0"
     inkscape:pageshadow="2"
     inkscape:window-width="1855"
     inkscape:window-height="1056"
     id="namedview53"
     showgrid="false"
     inkscape:zoom="0.89702958"
     inkscape:cx="325.6291"
     inkscape:cy="126.43695"
     inkscape:window-x="65"
     inkscape:window-y="24"
     inkscape:window-maximized="1"
     inkscape:current-layer="g4859"
     showguides="false"
     fit-margin-top="0"
     fit-margin-left="0"
     fit-margin-right="0"
     fit-margin-bottom="0">
    <inkscape:grid
       type="xygrid"
       id="grid3030"
       empspacing="5"
       visible="true"
       enabled="true"
       snapvisiblegridlinesonly="true"
       originx="-96.301319px"
       originy="-580.68411px" />
  </sodipodi:namedview>
  <defs
     id="defs4208">
    <linearGradient
       id="linearGradient3046">
      <stop
         style="stop-color:#808080;stop-opacity:1;"
         offset="0"
         id="stop3048" />
      <stop
         style="stop-color:#808080;stop-opacity:0;"
         offset="1"
         id="stop3050" />
    </linearGradient>
    <linearGradient
       id="linearGradient3113">
      <stop
         id="stop3115"
         style="stop-color:#ff6600;stop-opacity:1"
         offset="0" />
      <stop
         id="stop3117"
         style="stop-color:#ff6600;stop-opacity:0"
         offset="1" />
    </linearGradient>
    <linearGradient
       x1="333.7652"
       y1="891.35071"
       x2="334.47324"
       y2="814.52527"
       id="linearGradient3119"
       xlink:href="#linearGradient3113"
       gradientUnits="userSpaceOnUse"
       gradientTransform="matrix(0.98546828,0,0,0.91091038,8.0646634,362.15118)" />
    <linearGradient
       x1="333.7652"
       y1="891.35071"
       x2="334.47324"
       y2="814.52527"
       id="linearGradient3119-3"
       xlink:href="#linearGradient3113-2"
       gradientUnits="userSpaceOnUse"
       gradientTransform="matrix(1.9709366,0,0,1.8218208,-176.30934,-593.12945)" />
    <linearGradient
       id="linearGradient3113-2">
      <stop
         id="stop3115-3"
         style="stop-color:#ff6600;stop-opacity:1"
         offset="0" />
      <stop
         id="stop3117-6"
         style="stop-color:#ff6600;stop-opacity:0"
         offset="1" />
    </linearGradient>
    <linearGradient
       x1="333.7652"
       y1="891.35071"
       x2="334.47324"
       y2="814.52527"
       id="linearGradient3119-3-1"
       xlink:href="#linearGradient3113-2-6"
       gradientUnits="userSpaceOnUse"
       gradientTransform="matrix(0.98546828,0,0,0.91091038,350.57064,364.75731)" />
    <linearGradient
       id="linearGradient3113-2-6">
      <stop
         id="stop3115-3-5"
         style="stop-color:#ff6600;stop-opacity:1"
         offset="0" />
      <stop
         id="stop3117-6-5"
         style="stop-color:#ff6600;stop-opacity:0"
         offset="1" />
    </linearGradient>
    <linearGradient
       x1="333.7652"
       y1="891.35071"
       x2="334.47324"
       y2="814.52527"
       id="linearGradient3119-3-1-9"
       xlink:href="#linearGradient3113-2-6-7"
       gradientUnits="userSpaceOnUse"
       gradientTransform="matrix(0.98546828,0,0,0.91091038,357.88782,418.1212)" />
    <linearGradient
       id="linearGradient3113-2-6-7">
      <stop
         id="stop3115-3-5-6"
         style="stop-color:#ff6600;stop-opacity:1"
         offset="0" />
      <stop
         id="stop3117-6-5-2"
         style="stop-color:#ff6600;stop-opacity:0"
         offset="1" />
    </linearGradient>
    <linearGradient
       x1="333.7652"
       y1="891.35071"
       x2="334.47324"
       y2="814.52527"
       id="linearGradient3119-3-1-9-7"
       xlink:href="#linearGradient3113-2-6-7-8"
       gradientUnits="userSpaceOnUse"
       gradientTransform="matrix(0.98546828,0,0,0.91091038,12.167819,739.78878)" />
    <linearGradient
       id="linearGradient3113-2-6-7-8">
      <stop
         id="stop3115-3-5-6-4"
         style="stop-color:#ff6600;stop-opacity:1"
         offset="0" />
      <stop
         id="stop3117-6-5-2-4"
         style="stop-color:#ff6600;stop-opacity:0"
         offset="1" />
    </linearGradient>
    <linearGradient
       x1="333.7652"
       y1="891.35071"
       x2="334.47324"
       y2="814.52527"
       id="linearGradient3119-3-1-9-7-7"
       xlink:href="#linearGradient3113-2-6-7-8-2"
       gradientUnits="userSpaceOnUse"
       gradientTransform="matrix(0.98546828,0,0,0.91091038,359.16005,736.73749)" />
    <linearGradient
       id="linearGradient3113-2-6-7-8-2">
      <stop
         id="stop3115-3-5-6-4-4"
         style="stop-color:#ff6600;stop-opacity:1"
         offset="0" />
      <stop
         id="stop3117-6-5-2-4-1"
         style="stop-color:#ff6600;stop-opacity:0"
         offset="1" />
    </linearGradient>
    <linearGradient
       x1="333.7652"
       y1="891.35071"
       x2="334.47324"
       y2="814.52527"
       id="linearGradient3119-3-1-93"
       xlink:href="#linearGradient3113-2-6-3"
       gradientUnits="userSpaceOnUse"
       gradientTransform="matrix(0.98546828,0,0,0.91091038,-368.35549,416.42517)" />
    <linearGradient
       id="linearGradient3113-2-6-3">
      <stop
         id="stop3115-3-5-7"
         style="stop-color:#ff6600;stop-opacity:1"
         offset="0" />
      <stop
         id="stop3117-6-5-3"
         style="stop-color:#ff6600;stop-opacity:0"
         offset="1" />
    </linearGradient>
    <linearGradient
       inkscape:collect="always"
       xlink:href="#linearGradient3046"
       id="linearGradient3052"
       x1="481.49924"
       y1="1035.7238"
       x2="480.62231"
       y2="890.80103"
       gradientUnits="userSpaceOnUse" />
  </defs>
  <metadata
     id="metadata4211">
    <rdf:RDF>
      <cc:Work
         rdf:about="">
        <dc:format>image/svg+xml</dc:format>
        <dc:type
           rdf:resource="http://purl.org/dc/dcmitype/StillImage" />
        <dc:title></dc:title>
      </cc:Work>
    </rdf:RDF>
  </metadata>
  <path
     inkscape:connector-curvature="0"
     style="fill:#0053a1;fill-opacity:1;stroke:none"
     id="path4831"
     d="" />
  <g
     id="g4859"
     transform="translate(-265.40086,-728.33896)">
    <path
       style="fill:#ff6600;fill-opacity:1;stroke:none"
       id="path4344-1-2"
       d="m 752.80028,835.45717 c -9.46468,-9.2758 -10.21134,-11.212 -8.3984,-21.7788 l 1.4275,-8.3202 12.91974,20.472 c 11.01294,17.4506 6.87444,15.366 3.97728,16.4372 -1.78996,0.6618 -4.58738,-1.578 -9.92612,-6.8102 z"
       inkscape:connector-curvature="0" />
    <path
       style="fill:#000000;fill-opacity:1;fill-rule:nonzero;stroke:none"
       id="path108-5-2"
       d="m 689.115,1015.5052 c 7.4227,-8.2686 51.15476,-15.88963 4.68278,-66.59623 l -0.051,-0.05 -71.78468,-71.4974 c -24.1996,-29.8344 -30.08988,-71.5772 -13.9834,-106.5836 11.46128,-24.854 37.38486,-41.9022 64.76104,-42.429 27.53584,-0.5428 57.0805,21.0556 67.64786,46.5164 0.65478,1.5884 6.52846,15.8742 4.7564,22.1652 -2.8936,10.273 -6.39594,13.0512 -13.35792,19.764 -23.8276,-8.321 -36.1393,-23.892 -57.4601,-30.1074 -13.3137,-4.828 -28.16224,11.8464 -20.58728,45.8012 3.444,16.1938 50.4118,57.4966 76.57342,81.2672 l 20.46174,19.982 c 16.07142,16.0714 37.3954,46.6128 37.3954,94.66083 0,77.8186 -44.5075,149.7363 -124.49706,149.7363 l -182.68052,0.102 c 111.25368,-36.828 277.17758,20.1614 257.17758,-109.8385 20,-30 0,-20 -49.05426,-52.8922 z"
       inkscape:connector-curvature="0" />
    <path
       style="fill:none;stroke:none"
       id="path4112-8-3"
       d="m 563.91134,1109.4066 c 26.91084,-26.9158 39.80444,-40.0768 39.80444,-40.6298 0,-0.4494 -0.3665,-1.2106 -0.81346,-1.6914 l -0.81348,-0.8734 -65.53186,0 -65.53188,0 -139.47446,-139.47503 -139.47448,-139.475 56.967,0 56.967,0 0,25.1124 0,25.1124 1.051,0.8276 c 1.30038,1.023 1.79752,1.0332 2.99474,0.064 l 0.94244,-0.7624 0.115,-13.8036 0.115,-13.8034 57.8502,0 57.85018,0 0.006,46.3918 c 0.004,36.4678 0.115,46.6054 0.50826,47.3896 0.63852,1.268 2.79284,1.5788 3.9133,0.5644 0.73046,-0.6614 0.76112,-1.5534 0.76112,-22.5754 l 0,-21.8872 58.06472,0 58.0646,0 0,60.6302 c 0,66.7738 -0.189,61.8844 2.39442,61.8844 2.4939,0 2.39442,0.996 2.39442,-23.9728 l 0,-22.7184 50.88148,0 50.88134,0 0,42.8462 c 0,42.74203 0.004,42.84863 0.82752,43.89763 0.99352,1.2642 2.44894,1.367 3.56264,0.2528 0.7726,-0.7726 0.79814,-1.3302 0.79814,-17.497 l 0,-16.69903 2.28894,0.7726 c 3.09104,1.0432 7.87962,1.477 11.65246,1.0548 11.7882,-1.319 20.91534,-8.4744 24.86186,-19.4914 1.1442,-3.1952 1.44686,-11.6304 0.54272,-15.1574 -1.70354,-6.6492 0.84922,-3.7904 -39.56792,-44.3232 -37.6547,-37.7632 -39.31932,-39.5526 -43.71738,-46.9988 -13.9055,-23.5424 -17.95138,-50.2182 -11.51402,-75.9148 5.0473,-20.1482 15.15188,-34.9872 31.10956,-45.6858 7.04164,-4.721 16.6409,-8.7208 25.435,-10.598 5.06238,-1.0804 15.12902,-1.4684 20.8511,-0.8032 20.8916,2.4288 40.16508,15.0384 49.93904,32.6724 1.134,2.046 2.47768,4.7496 2.98594,6.008 1.15186,2.8528 2.15268,8.4634 2.15268,12.0738 l 0,2.7412 -28.83278,0 c -31.43788,0 -31.22016,0 -36.31242,2.324 -5.257,2.4068 -9.61866,6.7512 -12.28534,12.236 -4.1225,8.4794 -3.72278,17.4746 1.12632,25.341 0.9118,1.4788 16.35702,17.2346 47.33646,48.2876 25.29094,25.351 47.24094,47.5292 48.77784,49.285 20.82532,23.7946 34.80272,50.9116 40.00864,77.6192 8.3299,42.73443 -3.89238,89.49463 -32.85744,125.70693 -4.57072,5.7142 -14.64848,15.9898 -20.0909,20.485 l -3.7049,3.0602 -108.03198,0 -108.03186,0 39.80458,-39.8119 0,0 z"
       inkscape:connector-curvature="0" />
    <path
       style="fill:none;stroke:none"
       id="path4114-3-2"
       d="m 563.91134,1109.4066 c 26.91084,-26.9158 39.80444,-40.0768 39.80444,-40.6298 0,-0.4494 -0.3665,-1.2106 -0.81346,-1.6914 l -0.81348,-0.8734 -65.53186,0 -65.53188,0 -139.47446,-139.47503 -139.47448,-139.475 56.967,0 56.967,0 0,25.1124 0,25.1124 1.051,0.8276 c 1.30038,1.023 1.79752,1.0332 2.99474,0.064 l 0.94244,-0.7624 0.115,-13.8036 0.115,-13.8034 57.8502,0 57.85018,0 0.006,46.3918 c 0.004,36.4678 0.115,46.6054 0.50826,47.3896 0.63852,1.268 2.79284,1.5788 3.9133,0.5644 0.73046,-0.6614 0.76112,-1.5534 0.76112,-22.5754 l 0,-21.8872 58.06472,0 58.0646,0 0,60.6302 c 0,66.7738 -0.189,61.8844 2.39442,61.8844 2.4939,0 2.39442,0.996 2.39442,-23.9728 l 0,-22.7184 50.88148,0 50.88134,0 0,42.8462 c 0,42.74203 0.004,42.84863 0.82752,43.89763 0.99352,1.2642 2.44894,1.367 3.56264,0.2528 0.7726,-0.7726 0.79814,-1.3302 0.79814,-17.497 l 0,-16.69903 2.28894,0.7726 c 3.09104,1.0432 7.87962,1.477 11.65246,1.0548 11.7882,-1.319 20.91534,-8.4744 24.86186,-19.4914 1.1442,-3.1952 1.44686,-11.6304 0.54272,-15.1574 -1.70354,-6.6492 0.84922,-3.7904 -39.56792,-44.3232 -37.6547,-37.7632 -39.31932,-39.5526 -43.71738,-46.9988 -13.9055,-23.5424 -17.95138,-50.2182 -11.51402,-75.9148 5.0473,-20.1482 15.15188,-34.9872 31.10956,-45.6858 7.04164,-4.721 16.6409,-8.7208 25.435,-10.598 5.06238,-1.0804 15.12902,-1.4684 20.8511,-0.8032 20.8916,2.4288 40.16508,15.0384 49.93904,32.6724 1.134,2.046 2.47768,4.7496 2.98594,6.008 1.15186,2.8528 2.15268,8.4634 2.15268,12.0738 l 0,2.7412 -28.83278,0 c -31.43788,0 -31.22016,0 -36.31242,2.324 -5.257,2.4068 -9.61866,6.7512 -12.28534,12.236 -4.1225,8.4794 -3.72278,17.4746 1.12632,25.341 0.9118,1.4788 16.35702,17.2346 47.33646,48.2876 25.29094,25.351 47.24094,47.5292 48.77784,49.285 20.82532,23.7946 34.80272,50.9116 40.00864,77.6192 8.3299,42.73443 -3.89238,89.49463 -32.85744,125.70693 -4.57072,5.7142 -14.64848,15.9898 -20.0909,20.485 l -3.7049,3.0602 -108.03198,0 -108.03186,0 39.80458,-39.8119 0,0 z"
       inkscape:connector-curvature="0" />
    <path
       style="fill:none;stroke:none"
       id="path4116-8-0"
       d="m 563.91134,1109.4066 c 26.91084,-26.9158 39.80444,-40.0768 39.80444,-40.6298 0,-0.4494 -0.3665,-1.2106 -0.81346,-1.6914 l -0.81348,-0.8734 -65.53186,0 -65.53188,0 -139.47446,-139.47503 -139.47448,-139.475 56.967,0 56.967,0 0,25.1124 0,25.1124 1.051,0.8276 c 1.30038,1.023 1.79752,1.0332 2.99474,0.064 l 0.94244,-0.7624 0.115,-13.8036 0.115,-13.8034 57.8502,0 57.85018,0 0.006,46.3918 c 0.004,36.4678 0.115,46.6054 0.50826,47.3896 0.63852,1.268 2.79284,1.5788 3.9133,0.5644 0.73046,-0.6614 0.76112,-1.5534 0.76112,-22.5754 l 0,-21.8872 58.06472,0 58.0646,0 0,60.6302 c 0,66.7738 -0.189,61.8844 2.39442,61.8844 2.4939,0 2.39442,0.996 2.39442,-23.9728 l 0,-22.7184 50.88148,0 50.88134,0 0,42.8462 c 0,42.74203 0.004,42.84863 0.82752,43.89763 0.99352,1.2642 2.44894,1.367 3.56264,0.2528 0.7726,-0.7726 0.79814,-1.3302 0.79814,-17.497 l 0,-16.69903 2.28894,0.7726 c 3.09104,1.0432 7.87962,1.477 11.65246,1.0548 11.7882,-1.319 20.91534,-8.4744 24.86186,-19.4914 1.1442,-3.1952 1.44686,-11.6304 0.54272,-15.1574 -1.70354,-6.6492 0.84922,-3.7904 -39.56792,-44.3232 -37.6547,-37.7632 -39.31932,-39.5526 -43.71738,-46.9988 -13.9055,-23.5424 -17.95138,-50.2182 -11.51402,-75.9148 5.0473,-20.1482 15.15188,-34.9872 31.10956,-45.6858 7.04164,-4.721 16.6409,-8.7208 25.435,-10.598 5.06238,-1.0804 15.12902,-1.4684 20.8511,-0.8032 20.8916,2.4288 40.16508,15.0384 49.93904,32.6724 1.134,2.046 2.47768,4.7496 2.98594,6.008 1.15186,2.8528 2.15268,8.4634 2.15268,12.0738 l 0,2.7412 -28.83278,0 c -31.43788,0 -31.22016,0 -36.31242,2.324 -5.257,2.4068 -9.61866,6.7512 -12.28534,12.236 -4.1225,8.4794 -3.72278,17.4746 1.12632,25.341 0.9118,1.4788 16.35702,17.2346 47.33646,48.2876 25.29094,25.351 47.24094,47.5292 48.77784,49.285 20.82532,23.7946 34.80272,50.9116 40.00864,77.6192 8.3299,42.73443 -3.89238,89.49463 -32.85744,125.70693 -4.57072,5.7142 -14.64848,15.9898 -20.0909,20.485 l -3.7049,3.0602 -108.03198,0 -108.03186,0 39.80458,-39.8119 0,0 z"
       inkscape:connector-curvature="0" />
    <path
       style="fill:#0053a1;fill-opacity:1;stroke:none"
       id="path4833-6-5"
       d="m 731.51978,812.50557 c 0.101,-0.07 0.1536,-0.082 0.1174,-0.026 -0.0364,0.056 -0.1188,0.112 -0.1834,0.128 -0.0646,0.02 -0.0356,-0.03 0.066,-0.1 z"
       inkscape:connector-curvature="0" />
    <g
       id="layer1-9-4-7"
       transform="matrix(-1.2881885,0,0,1.5120434,7983.0466,-8483.9777)"
       style="fill:#000000">
      <g
         style="fill:#000000"
         id="g3974-0-8"
         transform="matrix(0.91070668,0,0,0.91070668,495.99609,669.51985)" />
      <path
         style="fill:#000000;fill-opacity:1;stroke:none"
         id="path4031-0-1"
         d="m 5666.8402,6391.1946 c -28.7396,-4.0765 -55.3026,-23.8752 -64.8246,-42.103 -1.5927,-3.0489 -1.6989,-2.9341 -2.3162,-6.2298 -4.6609,-24.8839 18.8961,-49.8002 55.45,-58.6498 l 4.7106,-1.1403 1.202,-7.2841 c 2.3122,-14.009 9.4314,-24.1435 23.9959,-34.1586 18.3393,-12.611 47.3977,-19.1451 73.0481,-16.4261 l 7.8439,0.8316 7.1472,-5.0972 c 11.6573,-8.3135 29.5906,-15.3364 46.6309,-18.2611 44.4601,-7.6309 91.4438,6.3932 112.2049,33.4918 9.5197,13.7703 9.6082,22.649 10.1799,37.1334 l 5.3637,2.3556 c 22.5693,9.9121 36.9242,24.1014 42.3402,41.852 2.0679,6.7771 1.5286,20.2371 -1.058,26.4104 -9.4991,22.6706 -33.7879,38.9464 -68.9272,46.1874 l -9.0201,1.8588 -118.3979,0.1234 c -102.2678,0.1067 -119.3753,-0.015 -125.5733,-0.8944 z m 245.0886,-15.7317 c 27.3921,-4.5495 48.3535,-18.6982 54.2885,-36.6436 2.0817,-6.2943 1.5744,-18.2531 -0.9994,-23.5604 -7.361,-15.1791 -24.8199,-27.1175 -47.0495,-32.1725 -3.1366,-0.7132 -3.821,-1.1632 -3.4277,-2.2537 5.4923,-15.2236 4.9868,-24.6611 -1.8966,-35.4082 -8.616,-13.4522 -27.7055,-24.2322 -49.6994,-28.0655 -8.2066,-1.4303 -25.5039,-1.5738 -34.8531,-0.2892 -8.587,1.1799 -23.494,5.9046 -31.0004,9.8254 -6.7768,3.5395 -13.8957,9.2391 -17.9516,14.3728 -1.9339,2.4477 -3.2963,3.4568 -4.3525,3.2239 -0.8457,-0.1864 -4.9972,-1.1558 -9.2258,-2.154 -15.2486,-3.5998 -32.9893,-2.773 -48.4391,2.2573 -14.6727,4.7772 -27.7551,15.7248 -31.6132,26.4546 -2.5314,7.0393 -1.3982,17.3435 2.6824,24.3941 0.3784,0.6537 -1.3375,0.8863 -6.9736,0.9456 -25.6355,0.2697 -49.0034,12.452 -56.7041,29.5611 -1.2654,2.8118 -1.7981,6.1944 -1.7502,11.1149 0.1145,11.7892 6.0932,20.7014 19.3747,28.8814 7.7208,4.7551 15.4812,7.6709 25.5271,9.5912 5.6818,1.086 14.9049,1.1792 121.0527,1.2236 111.6297,0.047 115.1333,0.01 123.0108,-1.2988 z"
         inkscape:connector-curvature="0" />
    </g>
    <rect
       style="fill:#000000;fill-opacity:1;stroke:none"
       id="rect4069-5-3"
       y="1038.1913"
       x="376.9624"
       height="93.860168"
       width="65.99794" />
    <rect
       style="fill:#000000;fill-opacity:1;stroke:none"
       id="rect4069-4-0-9-2"
       y="1004.3419"
       x="516.93756"
       height="127.70953"
       width="65.960625" />
    <rect
       style="fill:#000000;fill-opacity:1;stroke:none"
       id="rect4069-4-4-1-9"
       y="1058.1139"
       x="586.94989"
       height="73.995232"
       width="66.108421" />
    <path
       inkscape:connector-curvature="0"
       style="fill:url(#linearGradient3052);fill-opacity:1;stroke:none"
       id="path4342-4-0"
       d="m 446.94074,1050.2162 0,-81.92203 33.00526,0 33.00522,0 0,81.92203 0,81.9219 -33.00522,0 -33.00526,0 0,-81.9219 z" />
    <path
       style="fill:#ffffff;fill-opacity:1;stroke:none"
       id="path4825-6-6"
       d="m 761.25622,824.09937 c 0,0 3.26356,4.6602 4.0629,5.9844 1.11728,1.7394 1.75484,3.0628 2.30312,4.9928 0.62594,4.0932 0.37052,6.3906 -1.7543,7.884 -0.5355,0.3676 -7.54184,1.0158 -12.3443,-2.9288 -3.32832,-2.7338 -6.6666,-5.781 -16.97684,-16.2712 l -8.01058,-8.1504 c 4.16266,-5.5524 4.78128,-12.1544 1.59876,-20.0054 -6.8167,-16.8162 -13.0805,-31.8864 12.94964,-0.7076 0.25508,0.3056 14.00576,22.8294 12.6759,20.2866 z m -5.01912,13.9092 c 4.38274,3.4746 8.0028,2.142 8.14662,0.6734 0.63266,-3.9684 -3.84634,-8.8888 -3.91854,-9.2864 -1.14286,-1.702 -14.8611,-23.812 -15.78074,-25.5106 -0.0608,-0.112 0.64306,0.4908 0.59806,2.1948 -0.1574,5.9564 -0.49122,8.8242 -1.4787,13.0242 -0.49798,2.1184 -0.59078,2.774 -0.49994,3.5326 0.20758,1.733 1.13572,3.2834 3.71742,6.2096 1.65336,1.874 7.89546,8.0798 9.21586,9.1624 z"
       inkscape:connector-curvature="0" />
    <path
       style="fill:#999999;fill-opacity:1;stroke:none"
       id="path4344-0-7"
       d="m 746.71922,834.85217 c -9.46468,-9.276 -17.43096,-14.139 -9.66108,-21.5264 l 10.26634,-11.8558 15.69764,23.755 c 5.80776,8.7888 6.63336,14.4314 5.49252,17.4842 -3.90076,5.0878 -9.62338,1.2318 -13.62592,-1.1918 -2.0691,-1.2484 -3.33286,-2.578 -8.1695,-6.6652 z"
       inkscape:connector-curvature="0" />
  </g>
</svg>
