<?xml version="1.0" encoding="UTF-8"?>
<svg width="112" height="20" version="1.1" xmlns="http://www.w3.org/2000/svg">
 <linearGradient id="b" x2="0" y2="100%">
  <stop stop-color="#bbb" stop-opacity=".1" offset="0"/>
  <stop stop-opacity=".1" offset="1"/>
 </linearGradient>
 <clipPath id="a">
  <rect width="112" height="20" rx="3" fill="#fff"/>
 </clipPath>
 <g clip-path="url(#a)">
  <path d="M0 0h53v20H0z" fill="#555"/>
  <path d="M53 0h59v20H53z" fill="#fe7d37"/>
  <path d="M0 0h112v20H0z" fill="url(#b)"/>
 </g>
 <g transform="matrix(.1 0 0 .1 -.95455 0)" fill="#010101" fill-opacity=".3">
  <path d="m103.72 77.168q-11.816 0-18.799 8.8086-6.9287 8.8086-6.9287 24.009 0 15.146 6.9287 23.955 6.9824 8.8086 18.799 8.8086 11.816 0 18.691-8.8086 6.9287-8.8086 6.9287-23.955 0-15.2-6.9287-24.009-6.875-8.8086-18.691-8.8086zm0-8.8086q16.865 0 26.963 11.333 10.098 11.279 10.098 30.293 0 18.96-10.098 30.293-10.098 11.279-26.963 11.279-16.919 0-27.07-11.279-10.098-11.279-10.098-30.293t10.098-30.293q10.151-11.333 27.07-11.333z"/>
  <path d="m166.88 140.98v31.904h-9.9365v-83.037h9.9365v9.1309q3.1152-5.3711 7.8418-7.9492 4.7803-2.6318 11.387-2.6318 10.957 0 17.778 8.7012 6.875 8.7012 6.875 22.881 0 14.18-6.875 22.881-6.8213 8.7012-17.778 8.7012-6.6064 0-11.387-2.5781-4.7266-2.6318-7.8418-8.0029zm33.623-21.001q0-10.903-4.5117-17.08-4.458-6.2305-12.3-6.2305-7.8418 0-12.354 6.2305-4.458 6.1768-4.458 17.08t4.458 17.134q4.5117 6.1768 12.354 6.1768 7.8418 0 12.3-6.1768 4.5117-6.2305 4.5117-17.134z"/>
  <path d="m278.6 117.45v4.834h-45.439q0.64453 10.205 6.123 15.576 5.5322 5.3174 15.361 5.3174 5.6934 0 11.011-1.3965 5.3711-1.3965 10.635-4.1895v9.3457q-5.3174 2.2559-10.903 3.4375t-11.333 1.1816q-14.395 0-22.827-8.3789-8.3789-8.3789-8.3789-22.666 0-14.771 7.9492-23.418 8.0029-8.7012 21.538-8.7012 12.139 0 19.175 7.8418 7.0898 7.7881 7.0898 21.216zm-9.8828-2.9004q-0.10742-8.1104-4.5654-12.944-4.4043-4.834-11.709-4.834-8.2715 0-13.267 4.6728-4.9414 4.6728-5.6934 13.159l35.234-0.0537z"/>
  <path d="m344.82 113.69v36.309h-9.8828v-35.986q0-8.54-3.3301-12.783-3.3301-4.2432-9.9902-4.2432-8.0029 0-12.622 5.1025-4.6191 5.1025-4.6191 13.911v33.999h-9.9365v-60.156h9.9365v9.3457q3.5449-5.4248 8.3252-8.1104 4.834-2.6855 11.118-2.6855 10.366 0 15.684 6.4453 5.3174 6.3916 5.3174 18.853z"/>
  <path d="m399.66 89.844h9.8828v60.156h-9.8828zm0-23.418h9.8828v12.515h-9.8828z"/>
  <path d="m480.18 113.69v36.309h-9.8828v-35.986q0-8.54-3.3301-12.783-3.3301-4.2432-9.9902-4.2432-8.0029 0-12.622 5.1025-4.6191 5.1025-4.6191 13.911v33.999h-9.9365v-60.156h9.9365v9.3457q3.5449-5.4248 8.3252-8.1104 4.834-2.6855 11.118-2.6855 10.366 0 15.684 6.4453 5.3174 6.3916 5.3174 18.853z"/>
 </g>
 <g transform="matrix(.1 0 0 .1 -.95455 0)" fill="#ffffff">
  <path d="m103.72 67.168q-11.816 0-18.799 8.8086-6.9287 8.8086-6.9287 24.009 0 15.146 6.9287 23.955 6.9824 8.8086 18.799 8.8086 11.816 0 18.691-8.8086 6.9287-8.8086 6.9287-23.955 0-15.2-6.9287-24.009-6.875-8.8086-18.691-8.8086zm0-8.8086q16.865 0 26.963 11.333 10.098 11.279 10.098 30.293 0 18.96-10.098 30.293-10.098 11.279-26.963 11.279-16.919 0-27.07-11.279-10.098-11.279-10.098-30.293 0-19.014 10.098-30.293 10.151-11.333 27.07-11.333z"/>
  <path d="m166.88 130.98v31.904h-9.9365v-83.037h9.9365v9.1309q3.1152-5.3711 7.8418-7.9492 4.7803-2.6318 11.387-2.6318 10.957 0 17.778 8.7012 6.875 8.7012 6.875 22.881 0 14.18-6.875 22.881-6.8213 8.7012-17.778 8.7012-6.6064 0-11.387-2.5781-4.7266-2.6318-7.8418-8.0029zm33.623-21.001q0-10.903-4.5117-17.08-4.458-6.2305-12.3-6.2305-7.8418 0-12.354 6.2305-4.458 6.1768-4.458 17.08 0 10.903 4.458 17.134 4.5117 6.1768 12.354 6.1768 7.8418 0 12.3-6.1768 4.5117-6.2305 4.5117-17.134z"/>
  <path d="m278.6 107.45v4.834h-45.439q0.64453 10.205 6.123 15.576 5.5322 5.3174 15.361 5.3174 5.6934 0 11.011-1.3965 5.3711-1.3965 10.635-4.1895v9.3457q-5.3174 2.2559-10.903 3.4375t-11.333 1.1816q-14.395 0-22.827-8.3789-8.3789-8.3789-8.3789-22.666 0-14.771 7.9492-23.418 8.0029-8.7012 21.538-8.7012 12.139 0 19.175 7.8418 7.0898 7.7881 7.0898 21.216zm-9.8828-2.9004q-0.10742-8.1104-4.5654-12.944-4.4043-4.834-11.709-4.834-8.2715 0-13.267 4.6729-4.9414 4.6729-5.6934 13.159l35.234-0.0537z"/>
  <path d="m344.82 103.69v36.309h-9.8828v-35.986q0-8.54-3.3301-12.783t-9.9902-4.2432q-8.0029 0-12.622 5.1025t-4.6191 13.911v33.999h-9.9365v-60.156h9.9365v9.3457q3.5449-5.4248 8.3252-8.1104 4.834-2.6855 11.118-2.6855 10.366 0 15.684 6.4453 5.3174 6.3916 5.3174 18.853z"/>
  <path d="m399.66 79.844h9.8828v60.156h-9.8828zm0-23.418h9.8828v12.515h-9.8828z"/>
  <path d="m480.18 103.69v36.309h-9.8828v-35.986q0-8.54-3.3301-12.783t-9.9902-4.2432q-8.0029 0-12.622 5.1025t-4.6191 13.911v33.999h-9.9365v-60.156h9.9365v9.3457q3.5449-5.4248 8.3252-8.1104 4.834-2.6855 11.118-2.6855 10.366 0 15.684 6.4453 5.3174 6.3916 5.3174 18.853z"/>
 </g>
 <g fill="#010101" fill-opacity=".3">
  <path d="m80.887 7.2441v1.0581q-0.61768-0.29541-1.1655-0.44043-0.54785-0.14502-1.0581-0.14502-0.88623 0-1.3696 0.34375-0.47803 0.34375-0.47803 0.97754 0 0.53174 0.31689 0.80566 0.32227 0.26856 1.2139 0.43506l0.65527 0.13428q1.2139 0.23096 1.7886 0.81641 0.58008 0.58008 0.58008 1.5576 0 1.1655-0.78418 1.7671-0.77881 0.60156-2.2881 0.60156-0.56934 0-1.2139-0.12891-0.63916-0.12891-1.3267-0.38135v-1.1172q0.66064 0.37061 1.2944 0.55859t1.2461 0.18799q0.9292 0 1.4341-0.36523 0.50488-0.36523 0.50488-1.042 0-0.59082-0.36523-0.92383-0.35986-0.33301-1.187-0.49951l-0.66064-0.12891q-1.2139-0.2417-1.7563-0.75732-0.54248-0.51562-0.54248-1.4341 0-1.0635 0.74658-1.6758 0.75195-0.6123 2.0679-0.6123 0.56396 0 1.1494 0.10205t1.1978 0.30615z"/>
  <path d="m82.348 6.981h1.0957l1.6865 6.7783 1.6812-6.7783h1.2192l1.6865 6.7783 1.6812-6.7783h1.1011l-2.0142 8.019h-1.3643l-1.6919-6.9609-1.708 6.9609h-1.3643z"/>
  <path d="m96.012 8.0498-1.4717 3.9907h2.9487zm-0.6123-1.0688h1.23l3.0562 8.019h-1.1279l-0.73047-2.0571h-3.6147l-0.73047 2.0571h-1.144z"/>
  <path d="m100.85 6.981h1.4609l3.5557 6.7085v-6.7085h1.0527v8.019h-1.4609l-3.5557-6.7085v6.7085h-1.0527z"/>
 </g>
 <g fill="#ffffff">
  <path d="m80.887 6.2441v1.0581q-0.61768-0.29541-1.1655-0.44043-0.54785-0.14502-1.0581-0.14502-0.88623 0-1.3696 0.34375-0.47803 0.34375-0.47803 0.97754 0 0.53174 0.31689 0.80566 0.32227 0.26855 1.2139 0.43506l0.65527 0.13428q1.2139 0.23096 1.7886 0.81641 0.58008 0.58008 0.58008 1.5576 0 1.1655-0.78418 1.7671-0.77881 0.60156-2.2881 0.60156-0.56934 0-1.2139-0.12891-0.63916-0.12891-1.3267-0.38135v-1.1172q0.66064 0.37061 1.2944 0.55859t1.2461 0.18799q0.9292 0 1.4341-0.36523 0.50488-0.36523 0.50488-1.042 0-0.59082-0.36523-0.92383-0.35986-0.33301-1.187-0.49951l-0.66064-0.12891q-1.2139-0.2417-1.7563-0.75732-0.54248-0.51562-0.54248-1.4341 0-1.0635 0.74658-1.6758 0.75195-0.6123 2.0679-0.6123 0.56396 0 1.1494 0.10205t1.1978 0.30615z"/>
  <path d="m82.348 5.981h1.0957l1.6865 6.7783 1.6812-6.7783h1.2192l1.6865 6.7783 1.6812-6.7783h1.1011l-2.0142 8.019h-1.3643l-1.6919-6.9609-1.708 6.9609h-1.3643z"/>
  <path d="m96.012 7.0498-1.4717 3.9907h2.9487zm-0.6123-1.0688h1.23l3.0562 8.019h-1.1279l-0.73047-2.0571h-3.6147l-0.73047 2.0571h-1.144z"/>
  <path d="m100.85 5.981h1.4609l3.5557 6.7085v-6.7085h1.0527v8.019h-1.4609l-3.5557-6.7085v6.7085h-1.0527z"/>
 </g>
 <g transform="matrix(.98604 0 0 .98604 -.23805 1.4005)" fill="#a45226">
  <path d="m70.668 10.778c0.2311-0.25744 1.5927-0.49472 0.1458-2.0735l-0.0016-0.00156-2.235-2.2261c-0.75345-0.92889-0.93684-2.2285-0.43537-3.3185 0.35684-0.77382 1.164-1.3046 2.0163-1.321 0.85732-0.0169 1.7772 0.65556 2.1062 1.4483 0.02039 0.049454 0.20326 0.49424 0.14809 0.69011-0.09009 0.31985-0.19914 0.40635-0.4159 0.61535-0.74187-0.25907-1.1252-0.74387-1.789-0.93739-0.41452-0.15032-0.87683 0.36884-0.64098 1.426 0.10723 0.50419 1.5696 1.7901 2.3841 2.5302l0.63707 0.62214c0.50038 0.50038 1.1643 1.4513 1.1643 2.9472 0 2.4229-1.3857 4.662-3.8762 4.662l-5.6877 0.0032c3.4639-1.1466 8.6299 0.62772 8.0072-3.4198 0.6227-0.93404 0-0.6227-1.5273-1.6468z"/>
  <g transform="matrix(-.040107 0 0 .047077 297.76 -284.99)">
   <path d="m5666.8 6391.2c-28.74-4.0765-55.303-23.875-64.825-42.103-1.5927-3.0489-1.6989-2.9341-2.3162-6.2298-4.6609-24.884 18.896-49.8 55.45-58.65l4.7106-1.1403 1.202-7.2841c2.3122-14.009 9.4314-24.144 23.996-34.159 18.339-12.611 47.398-19.145 73.048-16.426l7.8439 0.8316 7.1472-5.0972c11.657-8.3135 29.591-15.336 46.631-18.261 44.46-7.6309 91.444 6.3932 112.2 33.492 9.5197 13.77 9.6082 22.649 10.18 37.133l5.3637 2.3556c22.569 9.9121 36.924 24.101 42.34 41.852 2.0679 6.7771 1.5286 20.237-1.058 26.41-9.4991 22.671-33.788 38.946-68.927 46.187l-9.0201 1.8588-118.4 0.1234c-102.27 0.1067-119.38-0.015-125.57-0.8944zm245.09-15.732c27.392-4.5495 48.354-18.698 54.288-36.644 2.0817-6.2943 1.5744-18.253-0.9994-23.56-7.361-15.179-24.82-27.118-47.05-32.172-3.1366-0.7132-3.821-1.1632-3.4277-2.2537 5.4923-15.224 4.9868-24.661-1.8966-35.408-8.616-13.452-27.706-24.232-49.699-28.066-8.2066-1.4303-25.504-1.5738-34.853-0.2892-8.587 1.1799-23.494 5.9046-31 9.8254-6.7768 3.5395-13.896 9.2391-17.952 14.373-1.9339 2.4477-3.2963 3.4568-4.3525 3.2239-0.8457-0.1864-4.9972-1.1558-9.2258-2.154-15.249-3.5998-32.989-2.773-48.439 2.2573-14.673 4.7772-27.755 15.725-31.613 26.455-2.5314 7.0393-1.3982 17.344 2.6824 24.394 0.3784 0.6537-1.3375 0.8863-6.9736 0.9456-25.636 0.2697-49.003 12.452-56.704 29.561-1.2654 2.8118-1.7981 6.1944-1.7502 11.115 0.1145 11.789 6.0932 20.701 19.375 28.881 7.7208 4.7551 15.481 7.6709 25.527 9.5912 5.6818 1.086 14.905 1.1792 121.05 1.2236 111.63 0.047 115.13 0.01 123.01-1.2988z" fill="#a45226"/>
  </g>
  <path d="m60.949 11.484h2.0548v2.9223h-2.0548z"/>
  <path d="m65.307 10.43h2.0537v3.9762h-2.0537z"/>
  <path d="m67.487 12.104h2.0583v2.3038h-2.0583z"/>
  <path d="m63.128 11.858v-2.5506h2.0552v5.1012h-2.0552z"/>
  <path d="m72.919 4.747s0.10161 0.14509 0.1265 0.18632c0.03479 0.054156 0.05464 0.09536 0.07171 0.15545 0.01949 0.12744 0.01154 0.19897-0.05462 0.24547-0.01667 0.011445-0.23481 0.031627-0.38434-0.091188-0.10363-0.085116-0.20757-0.17999-0.52857-0.5066l-0.24941-0.25376c0.1296-0.17287 0.14886-0.37842 0.04978-0.62286-0.21224-0.52357-0.40726-0.99278 0.40318-0.022031 0.0079 0.00951 0.43607 0.71079 0.39466 0.63162zm-0.15627 0.43306c0.13646 0.10818 0.24916 0.066691 0.25364 0.020966 0.0197-0.12356-0.11976-0.27675-0.122-0.28913-0.03558-0.052991-0.4627-0.74138-0.49133-0.79427-0.0019-0.00349 0.02002 0.015281 0.01862 0.068335-0.0049 0.18545-0.01529 0.27474-0.04604 0.40551-0.01551 0.065956-0.01839 0.086368-0.01557 0.10999 0.0065 0.053957 0.03536 0.10223 0.11574 0.19333 0.05148 0.058347 0.24582 0.25156 0.28693 0.28527z"/>
  <path d="m72.452 5.0919c-0.29468-0.28881-0.54271-0.44021-0.3008-0.67022l0.31964-0.36913 0.48874 0.73961c0.18082 0.27364 0.20653 0.44932 0.17101 0.54437-0.12145 0.15841-0.29962 0.038352-0.42424-0.037106-0.06442-0.038869-0.10377-0.080266-0.25436-0.20752z"/>
 </g>
 <g transform="matrix(.98604 0 0 .98604 -.21048 .60699)" fill="#ffffff">
  <path d="m70.668 10.778c0.2311-0.25744 1.5927-0.49472 0.1458-2.0735l-0.0016-0.00156-2.235-2.2261c-0.75345-0.92889-0.93684-2.2285-0.43537-3.3185 0.35684-0.77382 1.164-1.3046 2.0163-1.321 0.85732-0.0169 1.7772 0.65556 2.1062 1.4483 0.02039 0.049454 0.20326 0.49424 0.14809 0.69011-0.09009 0.31985-0.19914 0.40635-0.4159 0.61535-0.74187-0.25907-1.1252-0.74387-1.789-0.93739-0.41452-0.15032-0.87683 0.36884-0.64098 1.426 0.10723 0.50419 1.5696 1.7901 2.3841 2.5302l0.63707 0.62214c0.50038 0.50038 1.1643 1.4513 1.1643 2.9472 0 2.4229-1.3857 4.662-3.8762 4.662l-5.6877 0.0032c3.4639-1.1466 8.6299 0.62772 8.0072-3.4198 0.6227-0.93404 0-0.6227-1.5273-1.6468z"/>
  <g transform="matrix(-.040107 0 0 .047077 297.76 -284.99)">
   <path d="m5666.8 6391.2c-28.74-4.0765-55.303-23.875-64.825-42.103-1.5927-3.0489-1.6989-2.9341-2.3162-6.2298-4.6609-24.884 18.896-49.8 55.45-58.65l4.7106-1.1403 1.202-7.2841c2.3122-14.009 9.4314-24.144 23.996-34.159 18.339-12.611 47.398-19.145 73.048-16.426l7.8439 0.8316 7.1472-5.0972c11.657-8.3135 29.591-15.336 46.631-18.261 44.46-7.6309 91.444 6.3932 112.2 33.492 9.5197 13.77 9.6082 22.649 10.18 37.133l5.3637 2.3556c22.569 9.9121 36.924 24.101 42.34 41.852 2.0679 6.7771 1.5286 20.237-1.058 26.41-9.4991 22.671-33.788 38.946-68.927 46.187l-9.0201 1.8588-118.4 0.1234c-102.27 0.1067-119.38-0.015-125.57-0.8944zm245.09-15.732c27.392-4.5495 48.354-18.698 54.288-36.644 2.0817-6.2943 1.5744-18.253-0.9994-23.56-7.361-15.179-24.82-27.118-47.05-32.172-3.1366-0.7132-3.821-1.1632-3.4277-2.2537 5.4923-15.224 4.9868-24.661-1.8966-35.408-8.616-13.452-27.706-24.232-49.699-28.066-8.2066-1.4303-25.504-1.5738-34.853-0.2892-8.587 1.1799-23.494 5.9046-31 9.8254-6.7768 3.5395-13.896 9.2391-17.952 14.373-1.9339 2.4477-3.2963 3.4568-4.3525 3.2239-0.8457-0.1864-4.9972-1.1558-9.2258-2.154-15.249-3.5998-32.989-2.773-48.439 2.2573-14.673 4.7772-27.755 15.725-31.613 26.455-2.5314 7.0393-1.3982 17.344 2.6824 24.394 0.3784 0.6537-1.3375 0.8863-6.9736 0.9456-25.636 0.2697-49.003 12.452-56.704 29.561-1.2654 2.8118-1.7981 6.1944-1.7502 11.115 0.1145 11.789 6.0932 20.701 19.375 28.881 7.7208 4.7551 15.481 7.6709 25.527 9.5912 5.6818 1.086 14.905 1.1792 121.05 1.2236 111.63 0.047 115.13 0.01 123.01-1.2988z" fill="#ffffff"/>
  </g>
  <path d="m60.949 11.484h2.0548v2.9223h-2.0548z"/>
  <path d="m65.307 10.43h2.0537v3.9762h-2.0537z"/>
  <path d="m67.487 12.104h2.0583v2.3038h-2.0583z"/>
  <path d="m63.128 11.858v-2.5506h2.0552v5.1012h-2.0552z"/>
  <path d="m72.919 4.747s0.10161 0.14509 0.1265 0.18632c0.03479 0.054156 0.05464 0.09536 0.07171 0.15545 0.01949 0.12744 0.01154 0.19897-0.05462 0.24547-0.01667 0.011445-0.23481 0.031627-0.38434-0.091188-0.10363-0.085116-0.20757-0.17999-0.52857-0.5066l-0.24941-0.25376c0.1296-0.17287 0.14886-0.37842 0.04978-0.62286-0.21224-0.52357-0.40726-0.99278 0.40318-0.022031 0.0079 0.00951 0.43607 0.71079 0.39466 0.63162zm-0.15627 0.43306c0.13646 0.10818 0.24916 0.066691 0.25364 0.020966 0.0197-0.12356-0.11976-0.27675-0.122-0.28913-0.03558-0.052991-0.4627-0.74138-0.49133-0.79427-0.0019-0.00349 0.02002 0.015281 0.01862 0.068335-0.0049 0.18545-0.01529 0.27474-0.04604 0.40551-0.01551 0.065956-0.01839 0.086368-0.01557 0.10999 0.0065 0.053957 0.03536 0.10223 0.11574 0.19333 0.05148 0.058347 0.24582 0.25156 0.28693 0.28527z"/>
  <path d="m72.452 5.0919c-0.29468-0.28881-0.54271-0.44021-0.3008-0.67022l0.31964-0.36913 0.48874 0.73961c0.18082 0.27364 0.20653 0.44932 0.17101 0.54437-0.12145 0.15841-0.29962 0.038352-0.42424-0.037106-0.06442-0.038869-0.10377-0.080266-0.25436-0.20752z"/>
 </g>
</svg>
